0
SECTION
2
HEADER
9
$INSUNITS
70
4
9
$ACADVER
1
AC1014
9
$HANDSEED
5
FFFF
0
ENDSEC
0
SECTION
2
TABLES
0
TABLE
2
VPORT
5
8
100
AcDbSymbolTable
0
ENDTAB
0
TABLE
2
LTYPE
5
5
100
AcDbSymbolTable
0
LTYPE
5
14
100
AcDbSymbolTableRecord
100
AcDbLinetypeTableRecord
2
BYBLOCK
70
0
0
LTYPE
5
15
100
AcDbSymbolTableRecord
100
AcDbLinetypeTableRecord
2
BYLAYER
70
0
0
ENDTAB
0
TABLE
2
LAYER
5
2
100
AcDbSymbolTable
70
2
0
LAYER
5
50
100
AcDbSymbolTableRecord
100
AcDbLayerTableRecord
2
0
70
0
6
CONTINUOUS
0
ENDTAB
0
TABLE
2
STYLE
5
3
100
AcDbSymbolTable
70
1
0
STYLE
5
11
100
AcDbSymbolTableRecord
100
AcDbTextStyleTableRecord
2
STANDARD
70
0
0
ENDTAB
0
TABLE
2
VIEW
5
6
100
AcDbSymbolTable
70
0
0
ENDTAB
0
TABLE
2
UCS
5
7
100
AcDbSymbolTable
70
0
0
ENDTAB
0
TABLE
2
APPID
5
9
100
AcDbSymbolTable
70
2
0
APPID
5
12
100
AcDbSymbolTableRecord
100
AcDbRegAppTableRecord
2
ACAD
70
0
0
ENDTAB
0
TABLE
2
DIMSTYLE
5
A
100
AcDbSymbolTable
70
1
0
ENDTAB
0
TABLE
2
BLOCK_RECORD
5
1
100
AcDbSymbolTable
70
1
0
BLOCK_RECORD
5
1F
100
AcDbSymbolTableRecord
100
AcDbBlockTableRecord
2
*MODEL_SPACE
0
BLOCK_RECORD
5
1B
100
AcDbSymbolTableRecord
100
AcDbBlockTableRecord
2
*PAPER_SPACE
0
ENDTAB
0
ENDSEC
0
SECTION
2
BLOCKS
0
BLOCK
5
20
100
AcDbEntity
100
AcDbBlockBegin
2
*MODEL_SPACE
0
ENDBLK
5
21
100
AcDbEntity
100
AcDbBlockEnd
0
BLOCK
5
1C
100
AcDbEntity
100
AcDbBlockBegin
2
*PAPER_SPACE
0
ENDBLK
5
1D
100
AcDbEntity
100
AcDbBlockEnd
0
ENDSEC
0
SECTION
2
ENTITIES
0
LWPOLYLINE
5
100
100
AcDbEntity
8
0
100
AcDbPolyline
90
26
70
1
43
0.0
10
-42.98609168896752
20
109.76768344080452
10
-35.64297942667708
20
122.48632696477367
10
-22.000000283122063
20
109.7
10
-22.000000283122063
20
87.160000000000011
10
-25.000000283122063
20
87.160000000000011
10
-25.000000283122063
20
64.620000000000019
10
-22.000000283122063
20
64.620000000000019
10
-22.000000283122063
20
42.08000000000002
10
-25.000000283122063
20
42.08000000000002
10
-25.000000283122063
20
19.540000000000024
10
-22.000000283122063
20
19.540000000000024
10
-22.000000283122063
20
-2.9999999999999893
10
-51.333333616455398
20
-2.9999999999999893
10
-51.333333616455398
20
1.1102230246251565e-14
10
-80.666666949788748
20
1.1102230246251565e-14
10
-80.666666949788748
20
-2.9999999999999893
10
-108.49999988521546
20
-2.9999999999999991
42
-0.76732695989223298
10
-110.00000028312208
20
2.5980760478927145
10
-110.00000028312208
20
150.00000000000003
10
-95
20
150
10
-95
20
147
10
-80
20
147
10
-80
20
150
10
-65.000000283122063
20
150.00000000000003
10
-47.931028792273352
20
134.00280113764646
10
-57.188908311032343
20
117.96768344080448
0
LWPOLYLINE
5
101
100
AcDbEntity
8
0
100
AcDbPolyline
90
4
70
1
43
0.0
10
-60.000000283122077
20
65.000000000000014
10
-54.20000028312208
20
65.000000000000014
10
-54.20000028312208
20
75.650000000000006
10
-60.000000283122077
20
75.650000000000006
0
CIRCLE
5
102
100
AcDbEntity
8
0
100
AcDbCircle
10
-108.50000000000001
20
7.4940054162198066e-15
30
0
40
2.1213203435596384
210
0
220
-0
230
1
0
ENDSEC
0
SECTION
2
OBJECTS
0
DICTIONARY
5
C
100
AcDbDictionary
3
ACAD_GROUP
350
D
3
ACAD_MLINESTYLE
350
17
0
DICTIONARY
5
D
100
AcDbDictionary
0
DICTIONARY
5
1A
330
C
100
AcDbDictionary
0
DICTIONARY
5
17
100
AcDbDictionary
0
ENDSEC
0
EOF
